# xmcd
#
# Track frame offsets: 
#        150
#        19457
#        36107
#        55810
#        75892
#        94082
#        111105
#        133415
#        151777
#        170505
#        188582
#        206685
#        227322
#        246557
#        266972
#        286380
#
# Disc length: 4045 seconds
#
# Revision: 3
# Processed by: cddbd v1.5.2PL0 Copyright (c) Steve Scherf et al.
# Submitted via: ExactAudioCopy v0.99pb4
#
DISCID=da0fcb10
DTITLE=黎明 - 你愛不愛精選2
DYEAR=1998
DGENRE=Pop
TTITLE0=一生最愛就是你
TTITLE1=微風之前(離別之後)
TTITLE2=沒名字的歌無名字的你
TTITLE3=送你
TTITLE4=孤單的人孤單一個
TTITLE5=陽光
TTITLE6=願你今夜別離去
TTITLE7=Oh! 夜
TTITLE8=我來自北京
TTITLE9=我會像你一樣傻
TTITLE10=如果這是情
TTITLE11=我的感覺
TTITLE12=但願不只是朋友
TTITLE13=親近你
TTITLE14=人在黎明
TTITLE15=眈瑙婓謗笢
EXTD=
EXTT0=
EXTT1=
EXTT2=
EXTT3=
EXTT4=
EXTT5=
EXTT6=
EXTT7=
EXTT8=
EXTT9=
EXTT10=
EXTT11=
EXTT12=
EXTT13=
EXTT14=
EXTT15=
PLAYORDER=
